<svg xmlns="http://www.w3.org/2000/svg" version="1.1" xmlns:xlink="http://www.w3.org/1999/xlink" width="512" height="512" x="0" y="0" viewBox="0 0 408.1 512" style="enable-background:new 0 0 512 512" xml:space="preserve" class=""><g><g data-name="Layer 2"><g data-name="Microsoft Excel file"><path fill="#00a649" d="M52.84 375.71v52H26a26 26 0 0 1-26-26.15A23.59 23.59 0 0 1 .14 399 26 26 0 0 1 26 375.71z" opacity="1" data-original="#00a649"></path><path fill="#05db5c" d="M408.1 366v9.62l-334.82.08H26A26 26 0 0 0 .14 399l.44-183.49a26 26 0 0 1 26-26h26.26l355.26-.07z" opacity="1" data-original="#05db5c" class=""></path><path fill="#e7e7e9" d="M408.1 375.63v84.13A52.24 52.24 0 0 1 355.86 512H105.09a52.24 52.24 0 0 1-52.25-52.24v-84.05h20.44z" opacity="1" data-original="#e7e7e9" class=""></path><path fill="#a3a2a3" d="M314.08 2.37A31.19 31.19 0 0 1 323 7.92l74.6 66.32a31.35 31.35 0 0 1 10 17.92h-62.2a31.34 31.34 0 0 1-31.34-31.34V2.37z" opacity="1" data-original="#a3a2a3"></path><path fill="#e7e7e9" d="M302.14 0a31.13 31.13 0 0 1 11.94 2.37v58.45a31.34 31.34 0 0 0 31.34 31.34h62.2a30.49 30.49 0 0 1 .49 5.5v91.79l-355.26.07V62.69A62.69 62.69 0 0 1 115.53 0z" opacity="1" data-original="#e7e7e9" class=""></path><g fill="#fff"><path d="M202.31 336c-8.66 0-9.21-.1-10.05-.27a10.4 10.4 0 0 1-8.44-10.21v-83.66a10.41 10.41 0 1 1 20.81 0v73.33c4.9 0 11 0 16.75-.07h.07a10.41 10.41 0 0 1 .07 20.81c-8.93.07-15.02.07-19.21.07zM292.51 336c-14.13 0-27.92-5.92-36.91-15.84a10.41 10.41 0 0 1 15.43-14c5.1 5.63 13.13 9 21.48 9 8.12 0 13.84-4.86 14.68-9.57 1.12-6.27-7.33-10.11-11-11.47-13-4.79-24.52-9.92-25-10.13a11.29 11.29 0 0 1-1.45-.79 26.57 26.57 0 0 1-11.84-26.29c1.6-11.16 9.77-20.25 21.3-23.72 22.85-6.89 41.66 8.61 42.45 9.28a10.41 10.41 0 0 1-13.34 16c-.32-.26-11.28-8.9-23.1-5.34-5.41 1.63-6.49 5.27-6.71 6.76a5.87 5.87 0 0 0 2.08 5.51c2.94 1.29 12.52 5.42 22.81 9.22 21.1 7.77 26.39 23 24.31 34.65-2.78 15.5-17.58 26.73-35.19 26.73zM153.41 336a10.4 10.4 0 0 1-8.52-4.42L86 247.84a10.4 10.4 0 0 1 17-12l58.9 83.74a10.41 10.41 0 0 1-8.5 16.4z" fill="#ffffff" opacity="1" data-original="#ffffff"></path><path d="M90.26 336a10.41 10.41 0 0 1-8.5-16.41l59-83.74a10.41 10.41 0 0 1 17 12l-59 83.74a10.37 10.37 0 0 1-8.5 4.41z" fill="#ffffff" opacity="1" data-original="#ffffff"></path></g></g></g></g></svg>